<svg width="33" height="33" fill="none" xmlns="http://www.w3.org/2000/svg"><circle cx="16.5" cy="16.5" r="16.5" fill="#ED8262"/><g clip-path="url(#clip0)" fill="#fff"><path d="M17 8a5.63 5.63 0 00-5.625 5.625c0 2.992 5.11 9.695 5.327 9.978a.374.374 0 00.596 0c.217-.284 5.327-6.986 5.327-9.978A5.63 5.63 0 0017 8zm0 8.25a2.628 2.628 0 01-2.625-2.625A2.628 2.628 0 0117 11a2.628 2.628 0 012.625 2.625A2.628 2.628 0 0117 16.25z"/><path d="M25.562 25.417l-3-4.5a.376.376 0 00-.312-.167H20.22a55.772 55.772 0 01-2.328 3.309c-.21.275-.545.441-.893.441s-.683-.166-.894-.442a56.041 56.041 0 01-2.327-3.308h-2.03a.376.376 0 00-.311.167l-3 4.5a.376.376 0 00-.019.386c.065.12.192.197.33.197h16.5a.373.373 0 00.33-.198.372.372 0 00-.017-.385z"/></g><defs><clipPath id="clip0"><path fill="#fff" transform="translate(8 8)" d="M0 0h18v18H0z"/></clipPath></defs></svg>