<svg width="33" height="33" fill="none" xmlns="http://www.w3.org/2000/svg"><circle cx="16.5" cy="16.5" r="16.5" fill="#ED8262"/><g clip-path="url(#clip0)" fill="#fff"><path d="M19.932 16.093L26 19.928v-7.835l-6.068 3.999zM8 12.094v7.835l6.068-3.836L8 12.094zM24.875 9.813H9.125c-.561 0-1.007.418-1.091.957L17 16.677l8.966-5.907c-.084-.539-.53-.957-1.091-.957zM18.901 16.772L17.31 17.82a.562.562 0 01-.618 0l-1.592-1.05-7.063 4.468c.087.534.53.95 1.089.95h15.75c.56 0 1.002-.416 1.089-.95l-7.063-4.466z"/></g><defs><clipPath id="clip0"><path fill="#fff" transform="translate(8 7)" d="M0 0h18v18H0z"/></clipPath></defs></svg>