<svg width="33" height="34" fill="none" xmlns="http://www.w3.org/2000/svg"><path d="M16.5.266C7.388.266 0 7.654 0 16.766s7.388 16.5 16.5 16.5S33 25.878 33 16.766 25.612.266 16.5.266zm8.25 25.781c-9.667 0-17.531-7.864-17.531-17.53 0-.57.462-1.032 1.031-1.032h3.807c.57 0 1.032.462 1.032 1.031 0 1.782.387 3.48 1.153 5.043.121.247.138.53.047.79-.089.26-.278.472-.526.592l-1.539.742a14.492 14.492 0 005.357 5.357l.742-1.537a1.034 1.034 0 011.382-.478 11.394 11.394 0 005.043 1.152c.57 0 1.031.463 1.031 1.032v3.807h.002c0 .57-.462 1.031-1.031 1.031z" fill="#ED8262"/></svg>