<svg width="30" height="30" fill="none" xmlns="http://www.w3.org/2000/svg"><circle cx="15" cy="15" r="15" fill="#fff"/><path d="M21.107 16.686c-.275-.347-.197-.501 0-.811.003-.004 2.272-3.139 2.506-4.202h.001c.116-.388 0-.673-.562-.673h-1.858c-.474 0-.692.244-.809.518 0 0-.946 2.265-2.285 3.733-.432.425-.632.56-.867.56-.117 0-.297-.135-.297-.523v-3.616c0-.465-.133-.672-.524-.672h-2.923c-.297 0-.473.217-.473.419 0 .44.67.541.739 1.781v2.69c0 .589-.107.697-.345.697-.631 0-2.165-2.274-3.074-4.877-.183-.505-.362-.71-.84-.71H7.638c-.53 0-.637.245-.637.518 0 .484.632 2.885 2.938 6.059 1.537 2.166 3.702 3.34 5.671 3.34 1.184 0 1.328-.261 1.328-.71 0-2.07-.107-2.265.486-2.265.275 0 .748.136 1.853 1.181 1.263 1.239 1.47 1.794 2.177 1.794h1.86c.529 0 .797-.261.643-.775-.353-1.082-2.742-3.307-2.85-3.456z" fill="#162237"/></svg>