<svg width="30" height="30" fill="none" xmlns="http://www.w3.org/2000/svg"><circle cx="15" cy="15" r="15" fill="#fff"/><g clip-path="url(#clip0)"><path d="M23.602 10.447l.022.147a2.282 2.282 0 00-1.55-1.584l-.017-.004c-1.403-.381-7.05-.381-7.05-.381s-5.632-.007-7.05.381c-.76.22-1.348.816-1.562 1.572l-.004.016c-.524 2.738-.528 6.028.024 8.96l-.024-.148a2.282 2.282 0 001.551 1.584l.016.003c1.402.382 7.05.382 7.05.382s5.632 0 7.05-.382a2.283 2.283 0 001.563-1.572l.004-.015c.238-1.274.375-2.74.375-4.236v-.166-.173c0-1.497-.137-2.963-.398-4.384zm-10.396 7.291v-5.47l4.7 2.74-4.7 2.73z" fill="#162237"/></g><defs><clipPath id="clip0"><path fill="#fff" transform="translate(6 6)" d="M0 0h18v18H0z"/></clipPath></defs></svg>